<mxfile host="app.diagrams.net" agent="Mozilla/5.0 (Windows NT 10.0; Win64; x64) AppleWebKit/537.36 (KHTML, like Gecko) Chrome/136.0.0.0 Safari/537.36 Edg/136.0.0.0" version="27.1.1">
  <diagram name="Страница — 1" id="OdD4HG6TCLOufBFb-vtZ">
    <mxGraphModel dx="3190" dy="2492" grid="1" gridSize="10" guides="1" tooltips="1" connect="1" arrows="1" fold="1" page="1" pageScale="1" pageWidth="827" pageHeight="1169" math="0" shadow="0">
      <root>
        <mxCell id="0" />
        <mxCell id="1" parent="0" />
        <mxCell id="icH0nL4AUDxP8CXkfYBV-19" style="edgeStyle=orthogonalEdgeStyle;rounded=0;orthogonalLoop=1;jettySize=auto;html=1;entryX=0;entryY=0.5;entryDx=0;entryDy=0;" parent="1" source="44kAvlYFRHypITi_IRr9-1" target="icH0nL4AUDxP8CXkfYBV-12" edge="1">
          <mxGeometry relative="1" as="geometry">
            <Array as="points">
              <mxPoint x="720" y="317" />
              <mxPoint x="720" y="317" />
            </Array>
          </mxGeometry>
        </mxCell>
        <mxCell id="44kAvlYFRHypITi_IRr9-1" value="&lt;span style=&quot;font-family: &amp;quot;Times New Roman&amp;quot;;&quot;&gt;Направление на пересдачу&lt;/span&gt;" style="rounded=0;whiteSpace=wrap;html=1;fontSize=18;" parent="1" vertex="1">
          <mxGeometry x="100" y="240" width="310" height="270" as="geometry" />
        </mxCell>
        <mxCell id="44kAvlYFRHypITi_IRr9-59" style="edgeStyle=orthogonalEdgeStyle;rounded=0;orthogonalLoop=1;jettySize=auto;html=1;fontSize=18;entryX=0.486;entryY=-0.001;entryDx=0;entryDy=0;entryPerimeter=0;" parent="1" source="44kAvlYFRHypITi_IRr9-5" target="44kAvlYFRHypITi_IRr9-30" edge="1">
          <mxGeometry relative="1" as="geometry">
            <Array as="points">
              <mxPoint x="1245" y="180" />
            </Array>
          </mxGeometry>
        </mxCell>
        <mxCell id="44kAvlYFRHypITi_IRr9-5" value="&lt;span style=&quot;font-family: &amp;quot;Times New Roman&amp;quot;;&quot;&gt;&lt;font&gt;Положение о текущем контроле успеваемости и промежуточной аттестации обучающихся (ВО) «МУИВ»&lt;/font&gt;&lt;/span&gt;" style="text;html=1;align=center;verticalAlign=middle;whiteSpace=wrap;rounded=0;fontSize=18;" parent="1" vertex="1">
          <mxGeometry x="940" y="170" width="250" height="20" as="geometry" />
        </mxCell>
        <mxCell id="44kAvlYFRHypITi_IRr9-53" style="edgeStyle=orthogonalEdgeStyle;rounded=0;orthogonalLoop=1;jettySize=auto;html=1;fontSize=18;" parent="1" source="44kAvlYFRHypITi_IRr9-7" target="44kAvlYFRHypITi_IRr9-1" edge="1">
          <mxGeometry relative="1" as="geometry">
            <Array as="points">
              <mxPoint x="150" y="25" />
            </Array>
          </mxGeometry>
        </mxCell>
        <mxCell id="44kAvlYFRHypITi_IRr9-7" value="&lt;span style=&quot;font-family: &amp;quot;Times New Roman&amp;quot;;&quot;&gt;ФЗ от 29.12.2012 №273 «Об образовании в Российской Федерации» (ред. 28.02.2025)&lt;/span&gt;" style="text;html=1;align=center;verticalAlign=middle;whiteSpace=wrap;rounded=0;fontSize=18;" parent="1" vertex="1">
          <mxGeometry x="620" y="10" width="194" height="30" as="geometry" />
        </mxCell>
        <mxCell id="44kAvlYFRHypITi_IRr9-15" value="&lt;span style=&quot;color: rgb(0, 0, 0); font-family: &amp;quot;Times New Roman&amp;quot;; font-style: normal; font-variant-ligatures: normal; font-variant-caps: normal; font-weight: 400; letter-spacing: normal; orphans: 2; text-align: center; text-indent: 0px; text-transform: none; widows: 2; word-spacing: 0px; -webkit-text-stroke-width: 0px; white-space: normal; background-color: rgb(251, 251, 251); text-decoration-thickness: initial; text-decoration-style: initial; text-decoration-color: initial; float: none; display: inline !important;&quot;&gt;Студент&lt;/span&gt;" style="text;whiteSpace=wrap;html=1;fontSize=18;" parent="1" vertex="1">
          <mxGeometry x="84" y="1320" width="68.5" height="40" as="geometry" />
        </mxCell>
        <mxCell id="44kAvlYFRHypITi_IRr9-24" value="&lt;span style=&quot;color: rgb(0, 0, 0); font-family: &amp;quot;Times New Roman&amp;quot;; font-style: normal; font-variant-ligatures: normal; font-variant-caps: normal; font-weight: 400; letter-spacing: normal; orphans: 2; text-align: center; text-indent: 0px; text-transform: none; widows: 2; word-spacing: 0px; -webkit-text-stroke-width: 0px; white-space: normal; background-color: rgb(251, 251, 251); text-decoration-thickness: initial; text-decoration-style: initial; text-decoration-color: initial; float: none; display: inline !important;&quot;&gt;Заведующий кафедры&lt;/span&gt;" style="text;whiteSpace=wrap;html=1;fontSize=18;" parent="1" vertex="1">
          <mxGeometry x="210" y="1320" width="50" height="40" as="geometry" />
        </mxCell>
        <mxCell id="icH0nL4AUDxP8CXkfYBV-7" style="edgeStyle=orthogonalEdgeStyle;rounded=0;orthogonalLoop=1;jettySize=auto;html=1;entryX=0.29;entryY=1.002;entryDx=0;entryDy=0;entryPerimeter=0;" parent="1" source="44kAvlYFRHypITi_IRr9-25" target="44kAvlYFRHypITi_IRr9-29" edge="1">
          <mxGeometry relative="1" as="geometry">
            <Array as="points">
              <mxPoint x="355" y="1170" />
              <mxPoint x="680" y="1170" />
            </Array>
          </mxGeometry>
        </mxCell>
        <mxCell id="44kAvlYFRHypITi_IRr9-25" value="&lt;span style=&quot;color: rgb(0, 0, 0); font-family: &amp;quot;Times New Roman&amp;quot;; font-style: normal; font-variant-ligatures: normal; font-variant-caps: normal; font-weight: 400; letter-spacing: normal; orphans: 2; text-align: center; text-indent: 0px; text-transform: none; widows: 2; word-spacing: 0px; -webkit-text-stroke-width: 0px; white-space: normal; background-color: rgb(251, 251, 251); text-decoration-thickness: initial; text-decoration-style: initial; text-decoration-color: initial; float: none; display: inline !important;&quot;&gt;Ректор&lt;/span&gt;" style="text;whiteSpace=wrap;html=1;fontSize=18;" parent="1" vertex="1">
          <mxGeometry x="330" y="1320" width="50" height="40" as="geometry" />
        </mxCell>
        <mxCell id="UUo2lxp8RJapsqTJif-M-3" style="edgeStyle=orthogonalEdgeStyle;rounded=0;orthogonalLoop=1;jettySize=auto;html=1;entryX=0.5;entryY=1;entryDx=0;entryDy=0;fontSize=18;" parent="1" source="44kAvlYFRHypITi_IRr9-26" target="44kAvlYFRHypITi_IRr9-30" edge="1">
          <mxGeometry relative="1" as="geometry" />
        </mxCell>
        <mxCell id="44kAvlYFRHypITi_IRr9-26" value="&lt;span style=&quot;color: rgb(0, 0, 0); font-family: &amp;quot;Times New Roman&amp;quot;; font-style: normal; font-variant-ligatures: normal; font-variant-caps: normal; font-weight: 400; letter-spacing: normal; orphans: 2; text-indent: 0px; text-transform: none; widows: 2; word-spacing: 0px; -webkit-text-stroke-width: 0px; white-space: normal; background-color: rgb(251, 251, 251); text-decoration-thickness: initial; text-decoration-style: initial; text-decoration-color: initial; float: none; display: inline !important;&quot;&gt;Декан&lt;/span&gt;" style="text;whiteSpace=wrap;html=1;align=center;fontSize=18;" parent="1" vertex="1">
          <mxGeometry x="1214.5" y="1320" width="70" height="40" as="geometry" />
        </mxCell>
        <mxCell id="44kAvlYFRHypITi_IRr9-29" value="&lt;span style=&quot;font-family: &amp;quot;Times New Roman&amp;quot;;&quot;&gt;Ведомость учета академической задолженности/&lt;/span&gt;&lt;font face=&quot;Times New Roman&quot;&gt;Ведомость учета академических задолженностей для студентов с ИОМ&lt;/font&gt;" style="rounded=0;whiteSpace=wrap;html=1;fontSize=18;" parent="1" vertex="1">
          <mxGeometry x="590" y="550" width="310" height="270" as="geometry" />
        </mxCell>
        <mxCell id="lYB-k_tcPMr39Pa2z6qp-15" style="edgeStyle=orthogonalEdgeStyle;rounded=0;orthogonalLoop=1;jettySize=auto;html=1;fontSize=18;entryX=0;entryY=0.5;entryDx=0;entryDy=0;" parent="1" source="44kAvlYFRHypITi_IRr9-30" target="44kAvlYFRHypITi_IRr9-95" edge="1">
          <mxGeometry relative="1" as="geometry">
            <Array as="points">
              <mxPoint x="1490" y="1040" />
              <mxPoint x="1490" y="1040" />
            </Array>
          </mxGeometry>
        </mxCell>
        <mxCell id="44kAvlYFRHypITi_IRr9-30" value="&lt;font face=&quot;Times New Roman&quot;&gt;&lt;span style=&quot;text-align: start; caret-color: rgb(51, 144, 236); white-space-collapse: preserve; background-color: rgb(255, 255, 255);&quot;&gt;&lt;font&gt;Протокол заседания комиссии&lt;/font&gt;&lt;/span&gt;&lt;/font&gt;" style="rounded=0;whiteSpace=wrap;html=1;fontSize=18;" parent="1" vertex="1">
          <mxGeometry x="1089" y="899" width="321" height="281" as="geometry" />
        </mxCell>
        <mxCell id="44kAvlYFRHypITi_IRr9-33" style="edgeStyle=orthogonalEdgeStyle;rounded=0;orthogonalLoop=1;jettySize=auto;html=1;entryX=0.002;entryY=0.533;entryDx=0;entryDy=0;entryPerimeter=0;fontSize=18;" parent="1" source="44kAvlYFRHypITi_IRr9-1" target="44kAvlYFRHypITi_IRr9-29" edge="1">
          <mxGeometry relative="1" as="geometry" />
        </mxCell>
        <mxCell id="44kAvlYFRHypITi_IRr9-34" value="&lt;div style=&quot;text-align: center;&quot;&gt;&lt;span style=&quot;font-family: &amp;quot;Times New Roman&amp;quot;; background-color: rgb(251, 251, 251);&quot;&gt;Ликвидация академических задолженностей&lt;/span&gt;&lt;/div&gt;" style="text;whiteSpace=wrap;html=1;fontSize=18;" parent="1" vertex="1">
          <mxGeometry x="500" y="410" width="150" height="40" as="geometry" />
        </mxCell>
        <mxCell id="lYB-k_tcPMr39Pa2z6qp-7" style="edgeStyle=orthogonalEdgeStyle;rounded=0;orthogonalLoop=1;jettySize=auto;html=1;fontSize=18;" parent="1" source="44kAvlYFRHypITi_IRr9-35" target="44kAvlYFRHypITi_IRr9-29" edge="1">
          <mxGeometry relative="1" as="geometry">
            <Array as="points">
              <mxPoint x="680" y="200" />
            </Array>
          </mxGeometry>
        </mxCell>
        <mxCell id="44kAvlYFRHypITi_IRr9-35" value="&lt;span style=&quot;color: rgb(0, 0, 0); font-family: &amp;quot;Times New Roman&amp;quot;; font-style: normal; font-variant-ligatures: normal; font-variant-caps: normal; font-weight: 400; letter-spacing: normal; orphans: 2; text-align: center; text-indent: 0px; text-transform: none; widows: 2; word-spacing: 0px; -webkit-text-stroke-width: 0px; white-space: normal; background-color: rgb(251, 251, 251); text-decoration-thickness: initial; text-decoration-style: initial; text-decoration-color: initial; float: none; display: inline !important;&quot;&gt;Устав ЧОУВО «Московский Университет имени С.Ю.Витте»&lt;/span&gt;" style="text;whiteSpace=wrap;html=1;fontSize=18;" parent="1" vertex="1">
          <mxGeometry x="460" y="180" width="210" height="40" as="geometry" />
        </mxCell>
        <mxCell id="44kAvlYFRHypITi_IRr9-42" value="&lt;font face=&quot;Times New Roman&quot;&gt;Рекомендации по студентам&lt;/font&gt;" style="text;whiteSpace=wrap;html=1;align=center;fontSize=18;" parent="1" vertex="1">
          <mxGeometry x="1000" y="780" width="180" height="40" as="geometry" />
        </mxCell>
        <mxCell id="44kAvlYFRHypITi_IRr9-55" style="edgeStyle=orthogonalEdgeStyle;rounded=0;orthogonalLoop=1;jettySize=auto;html=1;entryX=0.695;entryY=0.017;entryDx=0;entryDy=0;entryPerimeter=0;exitX=0;exitY=0.5;exitDx=0;exitDy=0;fontSize=18;" parent="1" source="44kAvlYFRHypITi_IRr9-35" edge="1">
          <mxGeometry relative="1" as="geometry">
            <mxPoint x="440" y="135" as="sourcePoint" />
            <mxPoint x="315.4500000000003" y="239.5899999999997" as="targetPoint" />
          </mxGeometry>
        </mxCell>
        <mxCell id="44kAvlYFRHypITi_IRr9-58" style="edgeStyle=orthogonalEdgeStyle;rounded=0;orthogonalLoop=1;jettySize=auto;html=1;entryX=0.8;entryY=-0.002;entryDx=0;entryDy=0;entryPerimeter=0;fontSize=18;" parent="1" source="44kAvlYFRHypITi_IRr9-7" target="44kAvlYFRHypITi_IRr9-30" edge="1">
          <mxGeometry relative="1" as="geometry" />
        </mxCell>
        <mxCell id="lYB-k_tcPMr39Pa2z6qp-2" style="edgeStyle=orthogonalEdgeStyle;rounded=0;orthogonalLoop=1;jettySize=auto;html=1;fontSize=18;" parent="1" source="44kAvlYFRHypITi_IRr9-62" target="44kAvlYFRHypITi_IRr9-1" edge="1">
          <mxGeometry relative="1" as="geometry">
            <Array as="points">
              <mxPoint x="70" y="430" />
              <mxPoint x="70" y="430" />
            </Array>
          </mxGeometry>
        </mxCell>
        <mxCell id="44kAvlYFRHypITi_IRr9-62" value="&lt;span style=&quot;font-size:14.0pt;font-family:&amp;quot;Times New Roman&amp;quot;,serif;&lt;br/&gt;mso-fareast-font-family:&amp;quot;Times New Roman&amp;quot;;mso-ansi-language:RU;mso-fareast-language:&lt;br/&gt;RU;mso-bidi-language:AR-SA&quot;&gt;Идентификация академических задолженностей&lt;/span&gt;" style="text;html=1;align=center;verticalAlign=middle;whiteSpace=wrap;rounded=0;fontSize=18;" parent="1" vertex="1">
          <mxGeometry x="-170" y="420" width="170" height="20" as="geometry" />
        </mxCell>
        <mxCell id="44kAvlYFRHypITi_IRr9-73" style="edgeStyle=orthogonalEdgeStyle;rounded=0;orthogonalLoop=1;jettySize=auto;html=1;entryX=0.002;entryY=0.134;entryDx=0;entryDy=0;entryPerimeter=0;fontSize=18;" parent="1" source="44kAvlYFRHypITi_IRr9-29" target="44kAvlYFRHypITi_IRr9-30" edge="1">
          <mxGeometry relative="1" as="geometry" />
        </mxCell>
        <mxCell id="44kAvlYFRHypITi_IRr9-88" value="&lt;span style=&quot;color: rgb(0, 0, 0); font-family: &amp;quot;Times New Roman&amp;quot;; font-style: normal; font-variant-ligatures: normal; font-variant-caps: normal; font-weight: 400; letter-spacing: normal; orphans: 2; text-align: center; text-indent: 0px; text-transform: none; widows: 2; word-spacing: 0px; -webkit-text-stroke-width: 0px; white-space: normal; background-color: rgb(251, 251, 251); text-decoration-thickness: initial; text-decoration-style: initial; text-decoration-color: initial; float: none; display: inline !important;&quot;&gt;Преподаватель&lt;/span&gt;" style="text;whiteSpace=wrap;html=1;fontSize=18;" parent="1" vertex="1">
          <mxGeometry x="737" y="1320" width="90" height="40" as="geometry" />
        </mxCell>
        <mxCell id="44kAvlYFRHypITi_IRr9-95" value="&lt;span style=&quot;color: rgb(0, 0, 0); font-family: &amp;quot;Times New Roman&amp;quot;; font-style: normal; font-variant-ligatures: normal; font-variant-caps: normal; font-weight: 400; letter-spacing: normal; orphans: 2; text-indent: 0px; text-transform: none; widows: 2; word-spacing: 0px; -webkit-text-stroke-width: 0px; white-space: normal; background-color: rgb(251, 251, 251); text-decoration-thickness: initial; text-decoration-style: initial; text-decoration-color: initial; float: none; display: inline !important;&quot;&gt;Отчетная документация по академическим задолженностям&lt;/span&gt;" style="text;whiteSpace=wrap;html=1;align=center;fontSize=18;" parent="1" vertex="1">
          <mxGeometry x="1600" y="1019.5" width="260" height="40" as="geometry" />
        </mxCell>
        <mxCell id="44kAvlYFRHypITi_IRr9-106" style="edgeStyle=orthogonalEdgeStyle;rounded=0;orthogonalLoop=1;jettySize=auto;html=1;fontSize=18;entryX=0.437;entryY=0.997;entryDx=0;entryDy=0;entryPerimeter=0;" parent="1" source="44kAvlYFRHypITi_IRr9-24" target="44kAvlYFRHypITi_IRr9-1" edge="1">
          <mxGeometry relative="1" as="geometry">
            <mxPoint x="246" y="510" as="targetPoint" />
          </mxGeometry>
        </mxCell>
        <mxCell id="lYB-k_tcPMr39Pa2z6qp-12" style="edgeStyle=orthogonalEdgeStyle;rounded=0;orthogonalLoop=1;jettySize=auto;html=1;entryX=0.452;entryY=0;entryDx=0;entryDy=0;entryPerimeter=0;fontSize=18;" parent="1" source="44kAvlYFRHypITi_IRr9-64" target="44kAvlYFRHypITi_IRr9-1" edge="1">
          <mxGeometry relative="1" as="geometry" />
        </mxCell>
        <mxCell id="44kAvlYFRHypITi_IRr9-64" value="&lt;span style=&quot;color: rgb(0, 0, 0); font-family: &amp;quot;Times New Roman&amp;quot;; font-style: normal; font-variant-ligatures: normal; font-variant-caps: normal; font-weight: 400; letter-spacing: normal; orphans: 2; text-align: center; text-indent: 0px; text-transform: none; widows: 2; word-spacing: 0px; -webkit-text-stroke-width: 0px; white-space: normal; background-color: rgb(251, 251, 251); text-decoration-thickness: initial; text-decoration-style: initial; text-decoration-color: initial; float: none; display: inline !important;&quot;&gt;Сроки ликвидации академической задолженности&lt;/span&gt;" style="text;whiteSpace=wrap;html=1;fontSize=18;" parent="1" vertex="1">
          <mxGeometry x="760" y="80" width="309" height="40" as="geometry" />
        </mxCell>
        <mxCell id="lYB-k_tcPMr39Pa2z6qp-8" style="edgeStyle=orthogonalEdgeStyle;rounded=0;orthogonalLoop=1;jettySize=auto;html=1;entryX=0.928;entryY=-0.002;entryDx=0;entryDy=0;entryPerimeter=0;fontSize=18;" parent="1" source="44kAvlYFRHypITi_IRr9-5" target="44kAvlYFRHypITi_IRr9-29" edge="1">
          <mxGeometry relative="1" as="geometry" />
        </mxCell>
        <mxCell id="lYB-k_tcPMr39Pa2z6qp-10" style="edgeStyle=orthogonalEdgeStyle;rounded=0;orthogonalLoop=1;jettySize=auto;html=1;entryX=0.655;entryY=0.002;entryDx=0;entryDy=0;entryPerimeter=0;fontSize=18;" parent="1" source="44kAvlYFRHypITi_IRr9-64" target="44kAvlYFRHypITi_IRr9-29" edge="1">
          <mxGeometry relative="1" as="geometry">
            <Array as="points">
              <mxPoint x="793" y="220" />
              <mxPoint x="793" y="220" />
            </Array>
          </mxGeometry>
        </mxCell>
        <mxCell id="lYB-k_tcPMr39Pa2z6qp-11" style="edgeStyle=orthogonalEdgeStyle;rounded=0;orthogonalLoop=1;jettySize=auto;html=1;entryX=0.424;entryY=0.011;entryDx=0;entryDy=0;entryPerimeter=0;fontSize=18;" parent="1" edge="1">
          <mxGeometry relative="1" as="geometry">
            <mxPoint x="721" y="66" as="sourcePoint" />
            <mxPoint x="721.4400000000005" y="548.9699999999998" as="targetPoint" />
          </mxGeometry>
        </mxCell>
        <mxCell id="lYB-k_tcPMr39Pa2z6qp-13" style="edgeStyle=orthogonalEdgeStyle;rounded=0;orthogonalLoop=1;jettySize=auto;html=1;entryX=0.646;entryY=-0.001;entryDx=0;entryDy=0;entryPerimeter=0;fontSize=18;" parent="1" source="44kAvlYFRHypITi_IRr9-64" target="44kAvlYFRHypITi_IRr9-30" edge="1">
          <mxGeometry relative="1" as="geometry" />
        </mxCell>
        <mxCell id="icH0nL4AUDxP8CXkfYBV-4" style="edgeStyle=orthogonalEdgeStyle;rounded=0;orthogonalLoop=1;jettySize=auto;html=1;entryX=0.057;entryY=1.001;entryDx=0;entryDy=0;entryPerimeter=0;" parent="1" source="44kAvlYFRHypITi_IRr9-15" target="44kAvlYFRHypITi_IRr9-1" edge="1">
          <mxGeometry relative="1" as="geometry">
            <mxPoint x="120" y="510" as="targetPoint" />
          </mxGeometry>
        </mxCell>
        <mxCell id="icH0nL4AUDxP8CXkfYBV-6" style="edgeStyle=orthogonalEdgeStyle;rounded=0;orthogonalLoop=1;jettySize=auto;html=1;entryX=0.824;entryY=1.002;entryDx=0;entryDy=0;entryPerimeter=0;" parent="1" source="44kAvlYFRHypITi_IRr9-25" target="44kAvlYFRHypITi_IRr9-1" edge="1">
          <mxGeometry relative="1" as="geometry" />
        </mxCell>
        <mxCell id="icH0nL4AUDxP8CXkfYBV-8" style="edgeStyle=orthogonalEdgeStyle;rounded=0;orthogonalLoop=1;jettySize=auto;html=1;entryX=0.617;entryY=1.001;entryDx=0;entryDy=0;entryPerimeter=0;" parent="1" source="44kAvlYFRHypITi_IRr9-88" target="44kAvlYFRHypITi_IRr9-29" edge="1">
          <mxGeometry relative="1" as="geometry" />
        </mxCell>
        <mxCell id="icH0nL4AUDxP8CXkfYBV-9" style="edgeStyle=orthogonalEdgeStyle;rounded=0;orthogonalLoop=1;jettySize=auto;html=1;entryX=0.222;entryY=0.999;entryDx=0;entryDy=0;entryPerimeter=0;" parent="1" source="44kAvlYFRHypITi_IRr9-88" target="44kAvlYFRHypITi_IRr9-30" edge="1">
          <mxGeometry relative="1" as="geometry">
            <Array as="points">
              <mxPoint x="782" y="1270" />
              <mxPoint x="1160" y="1270" />
            </Array>
          </mxGeometry>
        </mxCell>
        <mxCell id="icH0nL4AUDxP8CXkfYBV-12" value="&lt;span style=&quot;font-family: &amp;quot;Times New Roman&amp;quot;;&quot;&gt;&lt;font&gt;Идентификация студентов&lt;/font&gt;&lt;/span&gt;" style="text;whiteSpace=wrap;html=1;align=center;fontSize=18;" parent="1" vertex="1">
          <mxGeometry x="1615" y="297" width="230" height="40" as="geometry" />
        </mxCell>
        <mxCell id="icH0nL4AUDxP8CXkfYBV-18" style="edgeStyle=orthogonalEdgeStyle;rounded=0;orthogonalLoop=1;jettySize=auto;html=1;entryX=0;entryY=0.25;entryDx=0;entryDy=0;" parent="1" source="icH0nL4AUDxP8CXkfYBV-15" target="44kAvlYFRHypITi_IRr9-1" edge="1">
          <mxGeometry relative="1" as="geometry" />
        </mxCell>
        <mxCell id="icH0nL4AUDxP8CXkfYBV-15" value="&lt;span style=&quot;font-size:14.0pt;font-family:&amp;quot;Times New Roman&amp;quot;,serif;&lt;br/&gt;mso-fareast-font-family:&amp;quot;Times New Roman&amp;quot;;mso-ansi-language:RU;mso-fareast-language:&lt;br/&gt;RU;mso-bidi-language:AR-SA&quot;&gt;Список студентов&lt;/span&gt;" style="text;html=1;align=center;verticalAlign=middle;whiteSpace=wrap;rounded=0;fontSize=18;" parent="1" vertex="1">
          <mxGeometry x="-170" y="297" width="170" height="20" as="geometry" />
        </mxCell>
      </root>
    </mxGraphModel>
  </diagram>
</mxfile>
